<?xml version="1.0" encoding="utf-8"?>
<!-- Generator: Adobe Illustrator 23.0.0, SVG Export Plug-In . SVG Version: 6.00 Build 0)  -->
<svg version="1.1" id="Layer_1" xmlns="http://www.w3.org/2000/svg" xmlns:xlink="http://www.w3.org/1999/xlink" x="0px" y="0px"
	 viewBox="0 0 2000 1128" style="enable-background:new 0 0 2000 1128;" xml:space="preserve">
<style type="text/css">
	.st0{display:none;}
	.st1{display:inline;}
	.st2{display:inline;fill:#3498DB;}
	.st3{fill:#3F51B5;}
	.st4{fill:#29B6F6;}
	.st5{fill:#2980B9;}
	.st6{opacity:0.2;enable-background:new    ;}
	.st7{fill:#00ACC1;}
	.st8{display:inline;opacity:0.64;fill:#FFFFFF;enable-background:new    ;}
	.st9{display:inline;opacity:0.14;fill:#FFFFFF;enable-background:new    ;}
	.st10{display:inline;opacity:0.28;enable-background:new    ;}
	.st11{opacity:0.5;stroke:#000000;stroke-miterlimit:10;}
</style>
<g class="st0">
	<polygon class="st1" points="1660.1,273 1650.6,272.2 1652.4,267.6 	"/>
	<polygon class="st1" points="1660.1,273 1650.6,272.2 1652.4,267.6 	"/>
	<polygon class="st1" points="1660.1,273 1650.6,272.2 1652.4,267.6 	"/>
	<polygon class="st2" points="827,0 1235.7,266.2 967,940.7 892.3,1128 0,1128 0,0 	"/>
	<g class="st1">
		<g>
			<polygon class="st3" points="1567.3,482.3 1311.5,1128 892.3,1128 967,940.7 1235.7,266.2 			"/>
		</g>
	</g>
	<g class="st1">
		<g>
			<polygon class="st4" points="2000,764.1 2000,1128 1311.5,1128 1567.3,482.3 1796.1,631.3 			"/>
		</g>
	</g>
	<g class="st1">
		<g>
			<polygon class="st5" points="967,940.7 892.3,1128 0,1128 0,267.6 			"/>
		</g>
	</g>
	<rect class="st6" width="2000" height="1128"/>
	<g class="st1">
		<g>
			<path class="st7" d="M827,0l408.7,266.2l331.7,216.1l228.7,149L2000,764.1V0H827z M1650.6,272.2l1.8-4.6l7.7,5.5L1650.6,272.2z"
				/>
		</g>
	</g>
</g>
<g class="st0">
	<path class="st8" d="M2000,56.3V59c0-29.9-23.3-54.2-52-54.2H52C23.3,4.8,0,29.1,0,59v-2.7C0,26.4,23.3,2.1,52,2.1h1896
		C1976.7,2.1,2000,26.4,2000,56.3z"/>
	<path class="st9" d="M2000,59v1012.2c0,29.9-23.3,54.2-52,54.2H52c-28.7,0-52-24.3-52-54.2V59C0,29.1,23.3,4.8,52,4.8h1896
		C1976.7,4.8,2000,29.1,2000,59z"/>
	<path class="st10" d="M2000,1071.2v2.7c0,29.9-23.3,54.2-52,54.2H52c-28.7,0-52-24.3-52-54.2v-2.7c0,29.9,23.3,54.2,52,54.2h1896
		C1976.7,1125.3,2000,1101.1,2000,1071.2z"/>
</g>
<rect class="st11" width="2000" height="1128"/>
</svg>
